<svg width="157" height="127" viewBox="0 0 157 127" fill="none" xmlns="http://www.w3.org/2000/svg">
<path d="M109.85 105.576C96.4231 121.559 78.1192 126.921 57.5495 126.461C47.7517 126.242 38.2624 124.287 29.3598 119.996C20.7243 115.849 13.5969 109.113 8.97005 100.725C1.02115 86.7238 -1.80505 71.802 1.13534 55.9055C1.66369 53.0504 2.49199 50.6968 5.4862 48.7921C14.4045 43.12 24.3067 40.5642 34.4307 39.0179C51.9648 36.3394 69.6675 35.5137 87.3348 37.4768C96.1954 38.571 104.991 40.1404 113.683 42.1782C120.582 43.7088 120.87 44.4426 122.008 51.0283C124.535 50.0759 126.997 48.8406 129.599 48.2243C137.637 46.321 145.745 49.6939 150.68 56.8566C159.021 68.9647 159.606 90.8935 141.307 103.408C134.342 108.171 126.772 111.108 118.176 109.068C115.414 108.414 112.866 106.871 109.85 105.576ZM7.19531 60.7775C6.51834 74.4717 10.2576 88.0212 17.8621 99.4299C21.6976 105.486 27.3153 110.205 33.9424 112.938C52.885 120.589 71.8275 120.798 90.4373 111.8C97.5331 108.467 103.317 102.867 106.878 95.883C112.996 83.9521 114.323 71.1561 113.872 57.8476C111.13 58.838 108.657 60.1448 106.036 60.6042C97.766 62.0482 89.4725 63.9515 81.1338 64.2738C56.4797 65.2182 31.7981 65.4822 7.19531 60.7775ZM11.7943 53.4449L11.9531 54.5107C14.606 54.959 17.2465 55.7014 19.9125 55.8071C38.1265 56.5291 56.3393 57.4085 74.5638 57.633C84.2546 57.7518 93.9967 56.8965 103.391 54.0559C105.261 53.4813 107.053 52.6811 108.728 51.6728C109.097 51.3959 109.393 51.035 109.594 50.6201C109.794 50.2051 109.892 49.7482 109.88 49.2876C109.719 48.8628 109.464 48.4802 109.133 48.169C108.802 47.8577 108.405 47.626 107.971 47.4913C105.148 46.6892 102.288 45.7946 99.3891 45.5393C90.5896 44.7629 81.7737 44.0737 72.9492 43.7062C55.6075 42.9842 38.4764 44.4537 21.8205 49.6618C18.4147 50.7257 15.1324 52.1736 11.7943 53.4449ZM121.628 60.935C122.946 60.5504 123.643 60.3174 124.354 60.1435C131.546 58.3871 138.597 61.7272 141.115 68.1935C142.7 72.3095 142.953 76.8193 141.837 81.0866C138.874 93.009 127.092 100.055 114.623 97.4333L113.519 99.9976C117.475 100.51 121.19 101.729 124.708 101.306C134.509 100.125 141.51 94.4096 145.156 85.4289C148.689 76.7285 147.686 67.9604 142.225 60.1743C137.483 53.4167 126.185 53.6385 121.628 60.935ZM118.006 91.057C129.126 92.5219 138.488 81.0563 134.749 70.2117C133.208 65.7433 126.176 63.7048 122.672 66.7843C122.1 67.4072 121.738 68.194 121.638 69.0336C120.4 76.3012 119.23 83.58 118.006 91.057Z" fill="#8A6338"/>
<path d="M71.269 23.6403C71.1305 27.5783 70.1873 30.6283 67.6873 32.7844C67.1038 33.2055 66.443 33.5073 65.7427 33.6726C65.0424 33.8379 64.3164 33.8635 63.6062 33.7478C61.7081 33.394 61.586 31.3923 62.1012 29.9982C63.9101 25.0993 62.9322 20.5331 61.6182 15.673C60.3272 10.8981 61.9326 6.19347 64.5763 1.98241C65.5608 0.4177 66.9601 -0.428306 68.7112 0.453812C70.3901 1.29786 70.4177 2.96431 69.7318 4.44961C67.478 9.34917 67.6742 14.0801 70.0731 18.9022C70.8758 20.5095 70.988 22.4589 71.269 23.6403Z" fill="#8A6338"/>
<path d="M30.4585 33.957C30.5149 33.4942 30.6508 33.0445 30.8601 32.6279C33.1488 29.2537 32.1932 26.0645 30.5904 22.7533C27.3343 16.0245 28.3129 9.86545 33.3398 4.36205C33.9233 3.72278 34.5507 2.84594 35.2891 2.6858C36.5545 2.41276 38.2426 2.12986 39.176 2.73763C40.5936 3.65651 39.8638 5.12212 39.0014 6.44267C37.7739 8.36346 36.673 10.3623 35.7059 12.4265C34.4227 15.0971 35.1303 17.6877 36.0997 20.3367C37.2058 23.0443 38.0015 25.8687 38.4717 28.7555C38.9082 32.3122 36.8479 35.4974 34.1917 36.5357C31.93 37.4185 30.3626 36.4386 30.4585 33.957Z" fill="#8A6338"/>
<path d="M80.9867 21.5097C80.3448 19.1049 79.8414 16.7645 79.0919 14.506C77.5764 9.93987 78.8674 5.90794 81.2578 2.06836C82.2725 0.437364 83.79 -0.588485 85.6743 0.369112C87.6571 1.37725 86.9758 3.14807 86.265 4.6583C85.5056 6.17185 85.1341 7.85036 85.1839 9.54302C85.2338 11.2357 85.7034 12.8895 86.5505 14.3557C89.187 19.4003 89.3255 24.5191 85.3337 28.9749C84.0407 30.4189 82.0376 31.4126 80.1703 32.0952C78.6929 32.6353 77.5994 31.8326 78.2387 29.922C79.168 27.1516 80.0554 24.3681 80.9867 21.5097Z" fill="#8A6338"/>
<path d="M53.3582 2.89516C53.0777 3.81931 52.7511 4.72881 52.3796 5.62026C50.6147 9.27212 51.0255 12.7527 52.9473 16.228C54.8192 19.6134 56.1903 23.2666 55.5943 27.1508C55.1823 29.3523 54.2717 31.4302 52.9322 33.2252C52.3546 34.0273 50.2832 34.379 49.2291 33.997C48.4954 33.7345 47.7931 31.7478 48.0175 30.7416C49.1438 25.6996 48.1777 21.1709 46.0046 16.5372C43.563 11.3304 44.7496 6.26936 48.4639 1.96313C49.1412 1.17553 50.6882 0.854638 51.8223 0.876954C52.3605 0.887455 52.8725 2.21585 53.3582 2.89516Z" fill="#8A6338"/>
</svg>
